<svg width="46" height="20" viewBox="0 0 46 20" fill="none" xmlns="http://www.w3.org/2000/svg">
<g clip-path="url(#clip0)">
<path d="M36.051 0.350021C35.9426 0.24063 35.8138 0.153649 35.6719 0.094045C35.5299 0.0344409 35.3776 0.00338103 35.2236 0.00263816C35.0697 0.00189529 34.9171 0.0314843 34.7746 0.0897158C34.632 0.147947 34.5024 0.233681 34.393 0.342021C34.2836 0.450362 34.1966 0.579188 34.137 0.721144C34.0774 0.863099 34.0463 1.0154 34.0456 1.16936C34.0448 1.32332 34.0744 1.47592 34.1327 1.61845C34.1909 1.76097 34.2766 1.89063 34.385 2.00002L41.168 8.49302L1.18398 8.63402C1.02964 8.63284 0.876577 8.6621 0.733557 8.72013C0.590536 8.77816 0.460363 8.86382 0.350484 8.97221C0.240605 9.0806 0.153178 9.2096 0.0932055 9.35182C0.033233 9.49403 0.00189229 9.64668 0.000976562 9.80102C0.00229066 10.1142 0.127213 10.4142 0.348568 10.6357C0.569923 10.8573 0.869805 10.9824 1.18298 10.984L41.167 10.843L34.384 17.72C34.1683 17.9437 34.0478 18.2423 34.0478 18.553C34.0478 18.8637 34.1683 19.1624 34.384 19.386C34.4927 19.4966 34.6223 19.5845 34.7654 19.6444C34.9084 19.7044 35.0619 19.7353 35.217 19.7353C35.3721 19.7353 35.5256 19.7044 35.6686 19.6444C35.8116 19.5845 35.9413 19.4966 36.05 19.386L44.833 10.493C45.0495 10.273 45.1709 9.97672 45.1709 9.66802C45.1709 9.35933 45.0495 9.06301 44.833 8.84302L36.051 0.350021Z" fill="white"/>
</g>
<defs>
<clipPath id="clip0">
<rect width="45.172" height="19.735" fill="white"/>
</clipPath>
</defs>
</svg>
